Coordinates
version=1
nRows=8
nColumns=40
inDegrees=yes

Units are S.I. units (second, meters, Newtons, ...)
Angles are in degrees.

endheader
time	pelvis_tilt	pelvis_list	pelvis_rotation	pelvis_tx	pelvis_ty	pelvis_tz	hip_flexion_r	hip_adduction_r	hip_rotation_r	knee_angle_r	knee_angle_r_beta	ankle_angle_r	subtalar_angle_r	mtp_angle_r	hip_flexion_l	hip_adduction_l	hip_rotation_l	knee_angle_l	knee_angle_l_beta	ankle_angle_l	subtalar_angle_l	mtp_angle_l	lumbar_extension	lumbar_bending	lumbar_rotation	arm_flex_r	arm_add_r	arm_rot_r	elbow_flex_r	pro_sup_r	wrist_flex_r	wrist_dev_r	arm_flex_l	arm_add_l	arm_rot_l	elbow_flex_l	pro_sup_l	wrist_flex_l	wrist_dev_l
     23.75750000	     -0.86693378	     -5.55995695	      3.55621004	      0.97216694	      0.91834286	      0.53682169	     12.44059857	      5.92357275	    -10.82233868	     26.63302038	     26.63302038	     16.78772111	     -8.82729186	     -2.50290708	     30.69843654	    -16.44441763	     -1.09615170	     64.64925294	     64.64925294	     14.99115426	    -19.61648023	     23.48074821	    -10.69195880	      6.48950018	      1.50576660	     14.55374801	    -19.73653448	    -16.95672882	     71.07406232	     45.29468152	      0.00000000	      0.00000000	     -1.83458375	     -7.60678684	     -3.43011261	     26.29964140	     46.15578118	      0.00000000	      0.00000000
     23.77671429	     -0.96211647	     -5.54687461	      4.10692167	      0.96986337	      0.91739844	      0.53721154	     12.47862907	      5.92342532	    -11.08924342	     26.95201626	     26.95201626	     17.17404400	     -9.23321076	     -2.34275532	     31.54175219	    -16.23287531	     -1.27187145	     62.60785026	     62.60785026	     15.40220826	    -19.60915265	     23.41138110	    -10.79287559	      6.51732035	      1.62505882	     16.38484727	    -19.54627795	    -17.21698179	     72.04012713	     45.28349497	      0.00000000	      0.00000000	     -3.73463182	     -7.37127834	     -2.93753636	     25.85711863	     46.03131144	      0.00000000	      0.00000000
     23.79592857	     -1.08860830	     -5.51080882	      4.65276504	      0.96750206	      0.91662165	      0.53723158	     12.48832288	      5.87231631	    -11.36291735	     27.14914266	     27.14914266	     17.45891775	     -9.55772363	     -2.34929484	     32.23055706	    -15.87304190	     -1.38498931	     60.15638991	     60.15638991	     15.63156970	    -19.58958609	     23.44000608	    -10.83923845	      6.52533192	      2.21941281	     17.92128988	    -19.85300455	    -17.41622608	     72.77561065	     45.27424225	      0.00000000	      0.00000000	     -5.21415489	     -7.09866926	     -2.76393338	     25.43396949	     45.97273969	      0.00000000	      0.00000000
     23.81514286	     -1.21381138	     -5.34809049	      5.20113127	      0.96511388	      0.91606288	      0.53691648	     12.49613694	      5.66095627	    -11.60550030	     27.38431186	     27.38431186	     17.75431665	     -9.86705417	     -2.25480964	     32.68425196	    -15.28106233	     -1.46799914	     57.31087583	     57.31087583	     15.49019113	    -19.55197715	     23.06991842	    -10.96060901	      6.39898188	      2.07290217	     19.94350590	    -19.38356251	    -17.50907290	     74.08759588	     45.24466873	      0.00000000	      0.00000000	     -6.95137452	     -6.98239634	     -2.31629090	     25.15872673	     45.85657003	      0.00000000	      0.00000000
     23.83435714	     -1.43886045	     -5.45976149	      5.81302038	      0.96275459	      0.91546574	      0.53623679	     12.53291955	      5.70008001	    -12.05848839	     27.41737705	     27.41737705	     17.94092727	    -10.13988103	     -2.25968328	     33.26841473	    -14.83171637	     -1.23679993	     54.36706019	     54.36706019	     15.36276470	    -19.46910172	     23.24996036	    -10.75542893	      6.63602675	      2.82969808	     21.31401159	    -19.81224703	    -17.63019998	     74.65545808	     45.23701246	      0.00000000	      0.00000000	     -8.03353895	     -6.84808666	     -2.24197489	     24.89999540	     45.82240415	      0.00000000	      0.00000000
     23.85357143	     -1.55762575	     -5.03262642	      6.39128542	      0.96049642	      0.91574144	      0.53513341	     12.23070659	      5.17488097	    -12.37211254	     27.20029478	     27.20029478	     18.20721542	    -10.19016503	     -2.12831349	     33.21620827	    -13.79342410	     -1.28852017	     50.87048515	     50.87048515	     14.48547614	    -19.40826629	     22.22549913	    -10.88286022	      6.24046592	      2.31424985	     23.59499477	    -19.13763702	    -17.46772938	     76.35450907	     45.18753363	      0.00000000	      0.00000000	     -9.72100227	     -6.80820522	     -1.62418284	     25.00809654	     45.67052833	      0.00000000	      0.00000000
     23.87278571	     -1.79370929	     -4.91634211	      7.01862271	      0.95827576	      0.91590636	      0.53373870	     11.99498211	      4.91655291	    -12.97097330	     26.82265521	     26.82265521	     18.38676605	     -9.91334176	     -1.98983288	     33.28000729	    -12.96838918	     -0.99051951	     47.31584367	     47.31584367	     13.09509608	    -19.24713926	     19.71363218	    -10.78424032	      6.20158584	      1.98460816	     25.81478927	    -18.91527124	    -16.91056657	     77.61802485	     45.14519205	      0.00000000	      0.00000000	    -11.52528494	     -6.90568946	     -0.27707969	     26.28958697	     45.37961415	      0.00000000	      0.00000000
     23.89200000	     -2.09558374	     -4.76011776	      7.60929223	      0.95614772	      0.91631563	      0.53220178	     11.74575250	      4.67723070	    -13.31744082	     26.28335747	     26.28335747	     18.37299763	    -10.00684171	     -1.94932469	     33.21029810	    -12.05344710	     -0.56374152	     43.60200595	     43.60200595	     11.24548177	    -19.05905630	     16.52519061	    -10.52774212	      6.06629880	      2.20791165	     27.67880307	    -19.23526343	    -16.29444881	     77.88338366	     45.19216860	      0.00000000	      0.00000000	    -13.64087929	     -8.51530278	      8.14310239	     29.54848234	     44.13481840	      0.00000000	      0.00000000
